<svg version="1.1" id="Layer_1" xmlns="http://www.w3.org/2000/svg" xmlns:xlink="http://www.w3.org/1999/xlink" x="0px" y="0px"
	 width="100%" viewBox="0 0 1191 635" enable-background="new 0 0 1191 635" xml:space="preserve">
<path fill="#FFFFFF" opacity="1.000000" stroke="none" 
	d="
M889.000000,636.000000 
	C592.666687,636.000000 296.833374,636.000000 1.000040,636.000000 
	C1.000026,424.333374 1.000026,212.666733 1.000013,1.000068 
	C397.999969,1.000046 794.999939,1.000046 1192.000000,1.000023 
	C1192.000000,212.666611 1192.000000,424.333221 1192.000000,635.999878 
	C1091.166626,636.000000 990.333313,636.000000 889.000000,636.000000 
M202.500000,375.000061 
	C156.406036,375.000061 110.312088,375.000061 64.289299,375.000061 
	C64.289299,342.688263 64.289299,310.950531 64.289299,278.999939 
	C66.389099,278.999939 68.201164,278.999939 70.013229,278.999939 
	C126.343727,278.999939 182.674225,279.000244 239.004715,278.998322 
	C240.504410,278.998291 242.015640,279.089539 243.501633,278.940399 
	C247.903519,278.498535 250.960205,275.226807 250.990524,271.053619 
	C251.020920,266.868317 247.994141,263.522827 243.617508,263.067535 
	C241.967560,262.895935 240.287491,263.001862 238.621155,263.001801 
	C176.290970,262.999725 113.960777,263.001038 51.630592,262.994965 
	C49.965778,262.994812 48.242752,263.180908 46.647606,262.826599 
	C42.629799,261.934204 40.141338,259.356018 40.084026,255.159576 
	C40.023521,250.729401 42.535351,248.017883 46.814770,247.144714 
	C48.419876,246.817215 50.135674,247.004120 51.801014,247.003998 
	C117.297714,246.999222 182.794403,246.999954 248.291107,246.999710 
	C249.624359,246.999695 250.959702,247.044434 252.290497,246.986237 
	C257.357025,246.764648 260.813446,243.581940 260.888977,239.110016 
	C260.964417,234.645203 257.505096,231.280609 252.519669,231.019028 
	C251.189941,230.949265 249.853714,231.000473 248.520477,231.000458 
	C188.856812,231.000031 129.193161,231.000076 69.529495,231.000076 
	C67.762054,231.000076 65.994621,231.000076 64.281235,231.000076 
	C64.281235,198.704498 64.281235,166.966858 64.281235,134.999924 
	C66.367188,134.999924 68.178795,134.999924 69.990410,134.999924 
	C148.653107,134.999924 227.315811,134.999969 305.978516,134.999481 
	C307.478394,134.999481 308.981873,135.058899 310.477539,134.977692 
	C315.425964,134.709076 318.920746,131.274414 318.821777,126.839584 
	C318.726288,122.561295 315.370819,119.315933 310.666931,119.027054 
	C309.172394,118.935265 307.667969,119.000656 306.168091,119.000641 
	C221.505692,119.000023 136.843292,119.000412 52.180904,118.997803 
	C50.514690,118.997749 48.815750,119.167046 47.188599,118.905586 
	C42.873379,118.212212 40.331345,115.624321 40.060268,111.208786 
	C39.804756,107.046822 42.921341,103.580795 47.255150,103.077736 
	C48.901150,102.886665 50.584389,103.002007 52.250652,103.001961 
	C143.746033,102.999641 235.241425,103.000389 326.736816,102.996498 
	C328.569122,102.996422 330.450256,103.202950 332.223999,102.866776 
	C336.488403,102.058548 339.065765,99.480400 339.049255,94.972031 
	C339.032776,90.469978 336.456970,87.912796 332.178711,87.119278 
	C330.563843,86.819763 328.855377,87.003326 327.189575,87.003220 
	C268.025879,86.999481 208.862213,87.000092 149.698532,87.000092 
	C147.914795,87.000092 146.131058,87.000092 144.222397,87.000092 
	C144.222397,81.489082 144.222397,76.417305 144.222397,71.518059 
	C144.572067,71.250648 144.698624,71.069229 144.826523,71.068283 
	C149.325668,71.034920 153.825211,71.042847 158.324142,70.993706 
	C164.280914,70.928650 167.841660,68.028397 167.967484,63.195400 
	C168.098175,58.175591 164.417282,55.015656 158.224945,55.010937 
	C127.393188,54.987431 96.561401,54.986748 65.729637,55.011570 
	C59.536259,55.016556 55.877354,58.188473 56.030140,63.230755 
	C56.176594,68.064011 59.723183,70.939384 65.701645,70.991394 
	C70.453667,71.032745 75.206352,70.999733 79.635880,70.999733 
	C79.635880,76.802254 79.635880,81.882339 79.635880,87.000092 
	C74.106659,87.000092 68.941437,86.999794 63.776222,87.000175 
	C58.443157,87.000572 53.108414,86.915535 47.777370,87.019753 
	C35.480202,87.260147 25.327486,96.504524 24.095709,108.476440 
	C22.848301,120.600250 30.699480,131.476929 42.801617,134.351593 
	C44.497139,134.754349 46.223305,135.028076 47.854996,135.345886 
	C47.854996,167.333267 47.854996,198.969467 47.854996,230.579300 
	C32.867657,233.253403 23.766870,241.884750 24.262318,254.347595 
	C24.467745,259.515045 26.551504,265.078613 29.265089,269.564331 
	C33.253330,276.157135 40.362450,278.558563 47.750641,279.211761 
	C47.750641,311.360718 47.750641,343.128906 47.750641,374.868164 
	C33.877384,376.389587 24.571440,385.452484 24.030483,397.740479 
	C23.771334,403.627197 25.428141,408.915161 29.005039,413.584534 
	C33.731266,419.754242 40.243183,422.578857 47.795914,423.200684 
	C47.795914,455.272980 47.795914,487.058594 47.795914,518.819031 
	C33.823360,520.492554 24.624861,529.389099 24.036148,541.625793 
	C23.337603,556.145386 34.342010,566.991028 49.887875,566.992798 
	C165.882019,567.005859 281.876190,567.000061 397.870331,566.997314 
	C399.203278,566.997253 400.541260,567.027771 401.868347,566.928955 
	C414.094757,566.019226 423.831482,555.632080 423.984741,543.364868 
	C424.147644,530.326782 415.521271,521.313293 399.999939,518.556946 
	C399.999939,516.964417 399.999969,515.317566 399.999939,513.670654 
	C399.999878,492.005066 400.018921,470.339478 399.987274,448.673950 
	C399.978546,442.701935 397.044312,439.157227 392.203308,439.027222 
	C387.174591,438.892151 384.024567,442.561188 384.011292,448.756866 
	C383.977783,464.422668 384.000061,480.088593 384.000061,495.754486 
	C384.000031,503.375366 384.000061,510.996216 384.000061,518.799438 
	C277.195007,518.799438 170.793732,518.799438 64.203308,518.799438 
	C64.203308,486.861481 64.203308,455.124176 64.203308,422.999939 
	C66.189995,422.999939 67.980011,422.999939 69.770020,422.999939 
	C138.433228,422.999939 207.096436,422.999969 275.759644,422.999939 
	C282.925934,422.999939 290.092499,423.036102 297.258484,422.988464 
	C303.137665,422.949341 306.785980,419.927826 306.887634,415.142212 
	C306.992950,410.187225 303.233093,407.072571 297.052277,407.002075 
	C295.885834,406.988770 294.719086,407.000092 293.552490,407.000092 
	C213.223206,407.000061 132.893921,407.000122 52.564644,406.999481 
	C51.064751,406.999481 49.559429,407.072113 48.065964,406.971893 
	C43.309418,406.652802 40.085236,403.458801 40.029922,399.094421 
	C39.974407,394.714447 43.162762,391.398621 47.868664,391.036957 
	C49.360214,390.922363 50.867043,391.000824 52.366882,391.000824 
	C122.863335,390.999847 193.359787,391.000275 263.856232,390.998016 
	C265.522552,390.997955 267.205658,391.115051 268.851929,390.925598 
	C273.227661,390.422089 276.211670,387.062225 276.035645,382.816589 
	C275.849701,378.331848 273.282501,375.839264 268.989716,375.089661 
	C267.693085,374.863281 266.329681,375.002747 264.996887,375.002533 
	C244.497925,374.998993 223.998962,375.000061 202.500000,375.000061 
M410.740631,75.741066 
	C407.304535,70.834991 403.900177,65.906288 400.425018,61.028023 
	C394.823425,53.164745 389.032349,53.026569 383.647888,61.025810 
	C367.208069,85.449158 350.448975,109.678513 334.738373,134.566772 
	C312.193024,170.282364 291.217529,206.901199 275.610718,246.336884 
	C266.271088,269.936584 261.018890,293.864227 266.201508,319.435852 
	C277.061890,373.022400 320.456085,414.413513 374.175140,421.817902 
	C429.158112,429.396515 482.540619,401.154480 506.948883,351.199097 
	C517.464539,329.677185 522.419312,306.895416 518.874451,282.920013 
	C516.006531,263.523224 508.698547,245.431854 500.548218,227.753906 
	C475.884888,174.259766 444.355804,124.796616 410.740631,75.741066 
M556.986633,348.499908 
	C556.986633,355.790375 556.986633,363.080841 556.986633,370.482697 
	C553.938049,370.632904 551.313843,370.762238 548.583862,370.896759 
	C548.583862,375.532806 548.583862,379.914551 548.583862,384.344025 
	C559.137146,384.344025 569.363953,384.344025 579.659302,384.344025 
	C579.659302,379.705475 579.659302,375.423523 579.659302,370.938690 
	C576.744141,370.758698 574.001343,370.589355 570.717834,370.386627 
	C570.717834,340.725098 570.717834,311.370544 570.717834,280.682373 
	C576.470764,316.211670 582.014648,350.450165 587.524231,384.476715 
	C593.047180,384.604340 593.184814,384.626495 593.739685,381.178528 
	C597.887024,355.403717 602.002625,329.623749 606.065491,303.835541 
	C607.212646,296.554321 608.151245,289.240234 609.185547,281.941223 
	C609.315308,281.980774 609.445129,282.020325 609.574890,282.059875 
	C609.574890,311.451721 609.574890,340.843597 609.574890,370.379150 
	C606.206848,370.604767 603.637268,370.776886 601.201904,370.940033 
	C601.201904,375.676880 601.201904,380.062683 601.201904,384.429749 
	C612.520508,384.429749 623.447021,384.429749 634.551147,384.429749 
	C634.551147,379.784485 634.551147,375.411163 634.551147,370.698608 
	C631.633362,370.698608 629.002563,370.698608 626.298401,370.698608 
	C626.298401,341.482544 626.298401,312.610321 626.298401,283.732330 
	C629.207886,283.595947 631.792358,283.474823 634.304871,283.357056 
	C634.304871,278.497498 634.304871,274.230591 634.304871,269.723938 
	C622.783325,269.723938 611.538391,269.723938 599.698364,269.723938 
	C596.986938,288.156769 594.283936,306.532623 591.413696,326.045258 
	C588.589783,306.492004 585.925842,288.046478 583.288208,269.782501 
	C571.117310,269.782501 559.850769,269.782501 548.621582,269.782501 
	C548.621582,274.486633 548.621582,278.872955 548.621582,283.668030 
	C551.555237,283.668030 554.131470,283.668030 556.986633,283.668030 
	C556.986633,305.224304 556.986633,326.362152 556.986633,348.499908 
M1052.357300,364.499603 
	C1052.357300,371.106171 1052.357300,377.712708 1052.357300,384.460571 
	C1059.383667,384.460571 1065.792114,384.460571 1072.343262,384.460571 
	C1072.343262,379.992035 1072.343262,375.796021 1072.343262,371.525787 
	C1070.373779,371.310883 1068.780396,371.137024 1066.809204,370.921936 
	C1066.809204,354.864319 1066.649170,339.066345 1066.922485,323.275879 
	C1066.990234,319.357910 1070.094849,317.049011 1074.010498,316.915009 
	C1078.255737,316.769714 1078.384521,320.226562 1078.665894,323.242004 
	C1078.820068,324.895111 1078.761475,326.570282 1078.758911,328.235474 
	C1078.732788,345.225616 1078.698242,362.215759 1078.666992,379.205902 
	C1078.663696,380.971497 1078.666504,382.737091 1078.666504,384.493683 
	C1085.803711,384.493683 1092.255249,384.493683 1098.920898,384.493683 
	C1098.920898,380.040466 1098.920898,375.825470 1098.920898,371.565521 
	C1096.976929,371.328369 1095.370850,371.132416 1093.267944,370.875885 
	C1093.267944,368.531342 1093.282227,366.407471 1093.265747,364.283875 
	C1093.151123,349.461517 1093.271973,334.631531 1092.799927,319.820465 
	C1092.593140,313.330658 1090.589966,307.064850 1083.600830,304.507904 
	C1076.546875,301.927246 1070.539795,303.991974 1065.705566,309.671509 
	C1065.427490,309.998138 1064.877441,310.093262 1064.484619,310.281403 
	C1055.677368,301.243774 1052.347046,301.113678 1040.911621,309.493469 
	C1040.532227,307.703308 1040.179810,306.040771 1039.834351,304.410889 
	C1033.106567,304.410889 1026.653931,304.410889 1019.934204,304.410889 
	C1019.934204,308.872437 1019.934204,313.126984 1019.934204,317.552155 
	C1021.882385,317.736267 1023.643860,317.902771 1025.375244,318.066376 
	C1025.375244,335.863983 1025.375244,353.384613 1025.375244,370.977081 
	C1023.405273,371.195984 1021.806152,371.373688 1020.183167,371.554047 
	C1020.183167,376.043335 1020.183167,380.258087 1020.183167,384.461426 
	C1028.989502,384.461426 1037.425171,384.461426 1046.033936,384.461426 
	C1046.033936,379.982361 1046.033936,375.773315 1046.033936,371.558624 
	C1044.064575,371.316101 1042.464355,371.119019 1040.369873,370.861115 
	C1040.369873,362.165527 1040.377441,353.706940 1040.367676,345.248383 
	C1040.359741,338.419037 1040.242188,331.588348 1040.344116,324.760803 
	C1040.405762,320.632446 1043.699951,316.951050 1047.246704,316.915344 
	C1052.216187,316.865295 1051.793823,320.838165 1052.256714,324.027985 
	C1052.446533,325.335938 1052.351196,326.688080 1052.351929,328.020142 
	C1052.358154,339.846649 1052.356567,351.673126 1052.357300,364.499603 
M554.057617,568.351135 
	C560.881287,568.321655 567.712585,568.487793 574.526978,568.221252 
	C587.953735,567.696045 597.920227,561.339478 602.727844,548.803040 
	C605.603821,541.303589 607.532532,533.179504 608.294983,525.184265 
	C609.959351,507.731964 609.790527,490.245148 603.229553,473.533966 
	C599.182556,463.226013 591.967102,455.896729 580.814270,454.389740 
	C571.032837,453.068024 561.041565,453.299072 550.946899,452.835236 
	C550.946899,458.155365 550.946899,462.552887 550.946899,467.297821 
	C553.678040,467.297821 556.129578,467.297821 558.690796,467.297821 
	C558.690796,496.496704 558.690796,525.343506 558.690796,554.202393 
	C555.951843,554.325989 553.512451,554.436035 550.661072,554.564697 
	C550.661072,558.671692 550.527710,562.477173 550.774841,566.257751 
	C550.823608,567.004272 552.337280,567.654907 554.057617,568.351135 
M563.434204,196.082870 
	C575.085022,205.717346 588.956543,203.193329 596.109558,189.864975 
	C598.208313,185.954315 599.880920,181.657166 600.870605,177.336029 
	C605.465393,157.274277 605.105652,136.990768 602.551208,116.727402 
	C601.422913,107.776993 599.084595,99.050499 593.711060,91.539062 
	C585.537537,80.113617 570.781616,79.537247 562.426270,90.806656 
	C559.052002,95.357727 556.562256,100.955490 555.091125,106.456955 
	C549.631226,126.874458 550.009827,147.668839 552.635864,168.450989 
	C553.874695,178.255020 556.135132,187.808151 563.434204,196.082870 
M809.984558,399.779022 
	C807.158752,398.949402 804.332886,398.119781 801.297729,397.228699 
	C799.184753,400.377441 797.092346,403.495514 795.004089,406.607422 
	C813.756165,419.266327 835.984253,409.712036 839.160522,387.977722 
	C839.592102,385.024567 839.753235,382.011353 839.781128,379.023529 
	C839.871277,369.363861 839.847656,359.703125 839.854980,350.042786 
	C839.863098,339.416595 839.856812,328.790405 839.856812,318.068634 
	C842.312195,317.828796 844.358276,317.628937 846.351685,317.434235 
	C846.351685,312.876312 846.351685,308.784088 846.351685,304.477173 
	C839.148315,304.477173 832.237000,304.477173 825.416687,304.477173 
	C825.022583,306.062500 824.699036,307.363770 824.315918,308.905090 
	C811.843994,298.358521 800.484497,304.520935 797.454285,317.308533 
	C797.262878,318.116333 796.924133,318.916656 796.890442,319.730286 
	C796.375061,332.164398 795.422363,344.607819 795.623413,357.032074 
	C795.717834,362.869873 797.361816,368.940948 799.511230,374.433777 
	C804.110229,386.186981 814.649353,387.831696 823.205811,378.632996 
	C823.496094,378.320892 823.946289,378.157501 824.369934,377.895050 
	C827.191101,392.061462 822.515381,399.541443 809.984558,399.779022 
M939.126709,384.504059 
	C945.560364,384.504059 951.994080,384.504059 958.572815,384.504059 
	C958.572815,380.016052 958.572815,375.931061 958.572815,371.561798 
	C956.631226,371.360718 954.897400,371.181152 952.819153,370.965881 
	C952.819153,369.028870 952.819458,367.386322 952.819214,365.743805 
	C952.817078,351.744049 952.969055,337.741486 952.716614,323.746246 
	C952.642822,319.656860 952.034119,315.354126 950.593994,311.557556 
	C947.312317,302.906036 937.549927,300.771637 930.476013,306.753906 
	C929.509644,307.571136 928.619507,308.478485 927.192688,309.813049 
	C926.916504,307.646881 926.721069,306.114532 926.503967,304.411621 
	C919.593811,304.411621 912.973083,304.411621 906.196899,304.411621 
	C906.196899,308.863312 906.196899,313.225006 906.196899,317.567566 
	C908.320129,317.780396 910.071289,317.955933 911.770142,318.126221 
	C911.770142,335.938019 911.770142,353.371826 911.770142,370.810730 
	C909.759216,371.181610 908.033630,371.499878 906.539185,371.775513 
	C906.539185,376.255676 906.539185,380.330475 906.539185,384.335693 
	C915.497986,384.335693 924.057434,384.335693 932.484131,384.335693 
	C932.484131,379.840637 932.484131,375.752594 932.484131,371.503479 
	C930.551758,371.330170 928.936401,371.185303 926.769409,370.990967 
	C926.769409,362.945312 926.776428,354.978577 926.767456,347.011841 
	C926.758789,339.345337 926.636658,331.677277 926.757751,324.012970 
	C926.816345,320.304962 930.445129,316.788361 933.759949,316.875824 
	C938.153015,316.991730 937.955139,320.431183 938.222717,323.359009 
	C938.434326,325.675201 938.346130,328.020721 938.354248,330.353302 
	C938.416626,348.178162 938.469910,366.003052 939.126709,384.504059 
M766.844727,337.716064 
	C766.750122,341.573395 764.996155,339.084869 763.906982,338.422089 
	C755.324036,333.198730 745.931946,335.320129 740.524170,343.751495 
	C734.576904,353.024017 734.935669,370.041595 741.266357,378.957397 
	C746.877075,386.859222 756.782715,387.872009 763.755066,381.176086 
	C764.525879,380.435822 764.843689,379.223999 765.371582,378.230865 
	C765.791687,378.542877 766.211731,378.854858 766.631836,379.166840 
	C766.785400,380.897797 766.939026,382.628754 767.085205,384.276245 
	C773.980225,384.276245 780.687805,384.276245 787.250000,384.276245 
	C787.250000,379.752106 787.250000,375.674255 787.250000,371.592377 
	C785.125366,371.329681 783.363770,371.111877 781.172485,370.840942 
	C781.172485,368.822540 781.180237,367.022644 781.171265,365.222778 
	C781.099121,350.742249 781.348145,336.250549 780.847961,321.784729 
	C780.440796,310.008179 771.223938,302.310669 759.054138,302.634888 
	C747.690857,302.937592 739.019592,311.131836 738.938721,321.915558 
	C742.984314,323.023651 747.095947,324.149841 751.506348,325.357880 
	C751.719849,324.121063 751.830505,323.329468 751.995422,322.549316 
	C752.899902,318.270325 754.837463,314.926422 759.834167,315.113037 
	C764.696594,315.294586 766.299072,318.738525 766.554138,322.897034 
	C766.839172,327.541992 766.763916,332.209076 766.844727,337.716064 
M970.749329,369.736084 
	C972.786621,376.649445 975.717773,382.923798 983.154175,385.527039 
	C993.746704,389.235138 1003.848572,384.018097 1007.523010,371.972473 
	C1013.090759,353.720123 1012.806824,335.227966 1007.520691,316.885895 
	C1006.844482,314.539368 1005.509949,312.307831 1004.138062,310.251343 
	C1000.765076,305.195068 995.967957,302.668030 989.820679,302.585724 
	C980.238403,302.457489 973.598022,307.807556 970.812256,319.012665 
	C966.691223,335.588562 966.880249,352.286438 970.749329,369.736084 
M1141.448730,348.695953 
	C1144.579712,348.695953 1147.710693,348.695953 1151.289185,348.695953 
	C1151.309082,337.828522 1152.052002,327.341187 1148.380859,317.253418 
	C1147.481934,314.783325 1146.168579,312.374329 1144.622437,310.244476 
	C1136.474243,299.020081 1120.590454,299.969543 1113.984985,312.171112 
	C1112.188354,315.489960 1110.861450,319.223572 1110.123779,322.927094 
	C1107.229736,337.459412 1107.116821,352.093475 1110.042847,366.626068 
	C1110.849121,370.631195 1112.386719,374.694000 1114.484497,378.193268 
	C1119.445801,386.468842 1130.537964,389.081268 1138.561401,384.225677 
	C1145.739990,379.881317 1148.783813,372.906982 1150.971069,365.004395 
	C1146.467651,363.366577 1142.517700,361.930084 1138.510864,360.472870 
	C1137.693115,363.714264 1137.621948,366.469513 1136.331909,368.417877 
	C1135.028442,370.386536 1132.592041,372.596252 1130.511475,372.745605 
	C1128.847412,372.865082 1125.796265,370.307739 1125.404297,368.496246 
	C1124.031982,362.154572 1123.544434,355.621399 1122.661499,348.695923 
	C1129.509644,348.695923 1134.986206,348.695923 1141.448730,348.695953 
M652.760559,307.229858 
	C650.472046,311.596191 646.804077,315.771240 646.166931,320.366547 
	C644.578003,331.825745 643.707031,343.484497 643.854004,355.046539 
	C643.940613,361.855377 645.541138,369.043304 648.181702,375.338928 
	C653.768372,388.658722 669.933044,390.689972 679.066528,379.460907 
	C682.303345,375.481415 684.209473,370.419525 686.985107,365.375641 
	C681.795349,363.446594 677.731384,361.936005 673.568115,360.388519 
	C672.987122,363.115662 672.673401,365.072388 672.143311,366.968597 
	C671.243286,370.188385 669.683472,372.987671 665.856567,373.049255 
	C661.821045,373.114197 660.410339,370.058716 659.932068,366.826599 
	C659.069092,360.994293 658.621704,355.100494 657.937256,348.632660 
	C667.976929,348.632660 677.045715,348.632660 686.185181,348.632660 
	C686.185181,342.327240 686.771179,336.466705 686.024841,330.781036 
	C685.236206,324.772949 684.136475,318.454254 681.477600,313.115479 
	C675.748047,301.611328 663.805176,299.283691 652.760559,307.229858 
M887.904114,307.558899 
	C877.364929,298.742523 864.348206,301.569336 858.659363,314.005554 
	C857.491089,316.559448 856.172119,319.297760 856.010925,322.015625 
	C855.274902,334.429077 854.419861,346.875610 854.667053,359.289154 
	C854.779236,364.922699 856.881165,370.687286 858.936707,376.065186 
	C861.152771,381.863190 865.930542,385.213959 872.162170,386.276703 
	C883.773315,388.256805 894.904419,378.326050 895.958862,364.802246 
	C892.177673,363.400116 888.335876,361.975525 884.171387,360.431213 
	C883.554810,363.084839 883.585266,365.696777 882.377625,367.461548 
	C880.845703,369.700317 878.302856,372.688354 876.206604,372.679993 
	C874.252258,372.672211 871.120361,369.434113 870.598083,367.141571 
	C869.259644,361.266541 869.083984,355.126587 868.380127,348.496399 
	C878.488403,348.496399 887.562561,348.496399 896.623108,348.496399 
	C896.623108,341.678894 896.998962,335.340973 896.527344,329.066772 
	C895.947449,321.353119 894.101990,313.911102 887.904114,307.558899 
M653.251343,178.468079 
	C653.251343,181.052277 653.251343,183.636459 653.251343,186.159805 
	C651.053101,186.450058 649.593750,186.642761 648.142334,186.834412 
	C648.142334,191.229965 648.142334,195.450653 648.142334,199.654175 
	C656.423889,199.654175 664.346802,199.654175 672.508179,199.654175 
	C672.508179,195.310196 672.508179,191.214279 672.508179,186.913376 
	C671.062744,186.661224 669.643982,186.413727 667.967957,186.121338 
	C667.967957,152.358353 667.967957,118.741646 667.967957,85.049149 
	C661.126526,85.049149 654.581604,85.049149 648.041199,85.049149 
	C648.041199,89.492607 648.041199,93.583603 648.041199,97.769463 
	C649.860046,97.966377 651.439819,98.137413 653.251343,98.333534 
	C653.251343,124.891556 653.251343,151.184647 653.251343,178.468079 
M694.111328,311.465271 
	C694.111328,313.411896 694.111328,315.358490 694.111328,317.605896 
	C696.696594,317.745636 698.764526,317.857391 701.164978,317.987152 
	C701.164978,321.303680 701.130310,324.268463 701.170715,327.232269 
	C701.370361,341.868988 701.149536,356.529510 701.948242,371.134003 
	C702.538879,381.932617 708.584167,386.410736 719.338074,385.488007 
	C722.120056,385.249268 724.868530,384.620026 727.746094,384.151642 
	C727.746094,379.796661 727.746094,375.883667 727.746094,371.629730 
	C726.196960,371.968933 724.957947,372.312042 723.695984,372.503540 
	C719.243958,373.179016 716.127869,371.296600 716.059692,366.861084 
	C715.810120,350.604706 715.960815,334.342163 715.960815,317.585663 
	C719.284302,317.585663 722.170105,317.585663 724.947998,317.585663 
	C724.947998,312.869415 724.947998,308.662048 724.947998,304.051544 
	C721.779968,304.051544 719.029419,304.051544 715.737732,304.051544 
	C715.737732,296.162567 715.737732,288.674835 715.737732,280.778656 
	C711.137207,284.121948 706.011292,286.307098 703.408447,290.185547 
	C700.963501,293.828705 701.183960,299.260590 700.216309,303.980103 
	C698.389893,304.158508 696.319641,304.360687 694.111328,304.576385 
	C694.111328,306.883453 694.111328,308.708954 694.111328,311.465271 
M675.270996,568.383362 
	C677.073425,568.383362 678.875793,568.383362 680.559753,568.383362 
	C680.559753,563.666809 680.559753,559.437073 680.559753,554.879700 
	C677.891541,554.879700 675.620361,554.879700 673.096436,554.879700 
	C673.096436,542.586792 672.553589,530.597839 673.263855,518.683594 
	C673.858887,508.703766 679.330078,503.918243 689.187744,502.566742 
	C689.987732,502.457062 690.780334,502.293579 691.499512,502.168457 
	C691.499512,497.057983 691.499512,492.199982 691.499512,487.392639 
	C680.861145,486.565430 677.161804,494.192810 672.734070,501.319458 
	C672.734070,497.037323 672.734070,492.755188 672.734070,488.353699 
	C665.354553,488.353699 658.320679,488.353699 651.223877,488.353699 
	C651.223877,492.818939 651.223877,496.922974 651.223877,501.223297 
	C653.524658,501.409943 655.629028,501.580658 657.858337,501.761505 
	C657.858337,519.519287 657.858337,537.083984 657.858337,554.780029 
	C655.488159,554.974182 653.415894,555.143860 651.210022,555.324524 
	C651.210022,559.763062 651.210022,563.861145 651.210022,568.383301 
	C659.043823,568.383301 666.683472,568.383301 675.270996,568.383362 
M638.765381,548.404419 
	C638.765381,528.356873 638.765381,508.309387 638.765381,488.313782 
	C631.527161,488.313782 625.105408,488.313782 618.569641,488.313782 
	C618.569641,492.801392 618.569641,496.987610 618.569641,501.222290 
	C620.534302,501.449005 622.136353,501.633881 623.708374,501.815277 
	C623.708374,519.610535 623.708374,537.180420 623.708374,554.725281 
	C621.806580,554.942566 620.209473,555.125000 618.421936,555.329224 
	C618.421936,559.683594 618.421936,563.771484 618.421936,568.106079 
	C626.662109,568.106079 634.732117,568.106079 643.679504,568.106079 
	C641.026794,563.477600 647.131775,556.958557 638.765381,554.138733 
	C638.765381,552.658447 638.765381,551.014954 638.765381,548.404419 
M614.966064,191.651199 
	C614.966064,194.268585 614.966064,196.885986 614.966064,199.627533 
	C623.496643,199.627533 631.558472,199.627533 639.790100,199.627533 
	C639.790100,195.256744 639.790100,191.154068 639.790100,187.003265 
	C638.269897,186.623489 636.883301,186.277100 635.124268,185.837646 
	C635.124268,163.767914 635.124268,141.843857 635.124268,119.722664 
	C628.251770,119.722664 621.812073,119.722664 615.218140,119.722664 
	C615.218140,124.177551 615.218140,128.418793 615.218140,132.830139 
	C617.198547,132.921204 618.937317,133.001144 620.631226,133.079041 
	C620.631226,151.068939 620.631226,168.630798 620.631226,186.308548 
	C618.706360,186.442291 617.076477,186.555542 615.184753,186.686996 
	C615.105225,188.151428 615.035645,189.433212 614.966064,191.651199 
M625.516663,468.066925 
	C629.913757,470.844757 634.121033,470.546539 637.701782,466.794250 
	C640.816711,463.529999 641.015076,459.547943 638.788757,455.757446 
	C636.496094,451.854095 632.752930,450.675476 628.443359,451.733307 
	C621.377502,453.467651 619.692749,461.200958 625.516663,468.066925 
M624.328064,100.699165 
	C631.739868,103.283455 638.272949,96.899109 636.668884,90.012489 
	C635.664490,85.700668 632.804504,83.141739 628.209595,82.897087 
	C623.652100,82.654434 620.430725,84.765045 619.002563,88.980881 
	C617.333618,93.907654 619.161194,97.726738 624.328064,100.699165 
z"/>
<path fill="#000000" opacity="1.000000" stroke="none" 
	d="
M203.000000,375.000061 
	C223.998962,375.000061 244.497925,374.998993 264.996887,375.002533 
	C266.329681,375.002747 267.693085,374.863281 268.989716,375.089661 
	C273.282501,375.839264 275.849701,378.331848 276.035645,382.816589 
	C276.211670,387.062225 273.227661,390.422089 268.851929,390.925598 
	C267.205658,391.115051 265.522552,390.997955 263.856232,390.998016 
	C193.359787,391.000275 122.863335,390.999847 52.366882,391.000824 
	C50.867043,391.000824 49.360214,390.922363 47.868664,391.036957 
	C43.162762,391.398621 39.974407,394.714447 40.029922,399.094421 
	C40.085236,403.458801 43.309418,406.652802 48.065964,406.971893 
	C49.559429,407.072113 51.064751,406.999481 52.564644,406.999481 
	C132.893921,407.000122 213.223206,407.000061 293.552490,407.000092 
	C294.719086,407.000092 295.885834,406.988770 297.052277,407.002075 
	C303.233093,407.072571 306.992950,410.187225 306.887634,415.142212 
	C306.785980,419.927826 303.137665,422.949341 297.258484,422.988464 
	C290.092499,423.036102 282.925934,422.999939 275.759644,422.999939 
	C207.096436,422.999969 138.433228,422.999939 69.770020,422.999939 
	C67.980011,422.999939 66.189995,422.999939 64.203308,422.999939 
	C64.203308,455.124176 64.203308,486.861481 64.203308,518.799438 
	C170.793732,518.799438 277.195007,518.799438 384.000061,518.799438 
	C384.000061,510.996216 384.000031,503.375366 384.000061,495.754486 
	C384.000061,480.088593 383.977783,464.422668 384.011292,448.756866 
	C384.024567,442.561188 387.174591,438.892151 392.203308,439.027222 
	C397.044312,439.157227 399.978546,442.701935 399.987274,448.673950 
	C400.018921,470.339478 399.999878,492.005066 399.999939,513.670654 
	C399.999969,515.317566 399.999939,516.964417 399.999939,518.556946 
	C415.521271,521.313293 424.147644,530.326782 423.984741,543.364868 
	C423.831482,555.632080 414.094757,566.019226 401.868347,566.928955 
	C400.541260,567.027771 399.203278,566.997253 397.870331,566.997314 
	C281.876190,567.000061 165.882019,567.005859 49.887875,566.992798 
	C34.342010,566.991028 23.337603,556.145386 24.036148,541.625793 
	C24.624861,529.389099 33.823360,520.492554 47.795914,518.819031 
	C47.795914,487.058594 47.795914,455.272980 47.795914,423.200684 
	C40.243183,422.578857 33.731266,419.754242 29.005039,413.584534 
	C25.428141,408.915161 23.771334,403.627197 24.030483,397.740479 
	C24.571440,385.452484 33.877384,376.389587 47.750641,374.868164 
	C47.750641,343.128906 47.750641,311.360718 47.750641,279.211761 
	C40.362450,278.558563 33.253330,276.157135 29.265089,269.564331 
	C26.551504,265.078613 24.467745,259.515045 24.262318,254.347595 
	C23.766870,241.884750 32.867657,233.253403 47.854996,230.579300 
	C47.854996,198.969467 47.854996,167.333267 47.854996,135.345886 
	C46.223305,135.028076 44.497139,134.754349 42.801617,134.351593 
	C30.699480,131.476929 22.848301,120.600250 24.095709,108.476440 
	C25.327486,96.504524 35.480202,87.260147 47.777370,87.019753 
	C53.108414,86.915535 58.443157,87.000572 63.776222,87.000175 
	C68.941437,86.999794 74.106659,87.000092 79.635880,87.000092 
	C79.635880,81.882339 79.635880,76.802254 79.635880,70.999733 
	C75.206352,70.999733 70.453667,71.032745 65.701645,70.991394 
	C59.723183,70.939384 56.176594,68.064011 56.030140,63.230755 
	C55.877354,58.188473 59.536259,55.016556 65.729637,55.011570 
	C96.561401,54.986748 127.393188,54.987431 158.224945,55.010937 
	C164.417282,55.015656 168.098175,58.175591 167.967484,63.195400 
	C167.841660,68.028397 164.280914,70.928650 158.324142,70.993706 
	C153.825211,71.042847 149.325668,71.034920 144.826523,71.068283 
	C144.698624,71.069229 144.572067,71.250648 144.222397,71.518059 
	C144.222397,76.417305 144.222397,81.489082 144.222397,87.000092 
	C146.131058,87.000092 147.914795,87.000092 149.698532,87.000092 
	C208.862213,87.000092 268.025879,86.999481 327.189575,87.003220 
	C328.855377,87.003326 330.563843,86.819763 332.178711,87.119278 
	C336.456970,87.912796 339.032776,90.469978 339.049255,94.972031 
	C339.065765,99.480400 336.488403,102.058548 332.223999,102.866776 
	C330.450256,103.202950 328.569122,102.996422 326.736816,102.996498 
	C235.241425,103.000389 143.746033,102.999641 52.250652,103.001961 
	C50.584389,103.002007 48.901150,102.886665 47.255150,103.077736 
	C42.921341,103.580795 39.804756,107.046822 40.060268,111.208786 
	C40.331345,115.624321 42.873379,118.212212 47.188599,118.905586 
	C48.815750,119.167046 50.514690,118.997749 52.180904,118.997803 
	C136.843292,119.000412 221.505692,119.000023 306.168091,119.000641 
	C307.667969,119.000656 309.172394,118.935265 310.666931,119.027054 
	C315.370819,119.315933 318.726288,122.561295 318.821777,126.839584 
	C318.920746,131.274414 315.425964,134.709076 310.477539,134.977692 
	C308.981873,135.058899 307.478394,134.999481 305.978516,134.999481 
	C227.315811,134.999969 148.653107,134.999924 69.990410,134.999924 
	C68.178795,134.999924 66.367188,134.999924 64.281235,134.999924 
	C64.281235,166.966858 64.281235,198.704498 64.281235,231.000076 
	C65.994621,231.000076 67.762054,231.000076 69.529495,231.000076 
	C129.193161,231.000076 188.856812,231.000031 248.520477,231.000458 
	C249.853714,231.000473 251.189941,230.949265 252.519669,231.019028 
	C257.505096,231.280609 260.964417,234.645203 260.888977,239.110016 
	C260.813446,243.581940 257.357025,246.764648 252.290497,246.986237 
	C250.959702,247.044434 249.624359,246.999695 248.291107,246.999710 
	C182.794403,246.999954 117.297714,246.999222 51.801014,247.003998 
	C50.135674,247.004120 48.419876,246.817215 46.814770,247.144714 
	C42.535351,248.017883 40.023521,250.729401 40.084026,255.159576 
	C40.141338,259.356018 42.629799,261.934204 46.647606,262.826599 
	C48.242752,263.180908 49.965778,262.994812 51.630592,262.994965 
	C113.960777,263.001038 176.290970,262.999725 238.621155,263.001801 
	C240.287491,263.001862 241.967560,262.895935 243.617508,263.067535 
	C247.994141,263.522827 251.020920,266.868317 250.990524,271.053619 
	C250.960205,275.226807 247.903519,278.498535 243.501633,278.940399 
	C242.015640,279.089539 240.504410,278.998291 239.004715,278.998322 
	C182.674225,279.000244 126.343727,278.999939 70.013229,278.999939 
	C68.201164,278.999939 66.389099,278.999939 64.289299,278.999939 
	C64.289299,310.950531 64.289299,342.688263 64.289299,375.000061 
	C110.312088,375.000061 156.406036,375.000061 203.000000,375.000061 
M242.500000,551.000000 
	C293.807190,551.000000 345.114349,551.001221 396.421539,550.994629 
	C398.085419,550.994385 399.811890,551.184937 401.400909,550.817932 
	C405.403351,549.893494 407.886414,547.298645 407.911530,543.106140 
	C407.938019,538.687073 405.410370,536.000122 401.129913,535.131409 
	C399.685211,534.838196 398.142059,535.003784 396.643921,535.003723 
	C281.535980,534.999634 166.428024,534.999817 51.320068,535.001892 
	C49.987705,535.001892 48.641869,534.914551 47.325455,535.067383 
	C42.970490,535.572693 39.848042,538.960754 40.059452,543.132385 
	C40.283520,547.553772 42.809196,550.158142 47.107800,550.896240 
	C48.728878,551.174561 50.431278,550.997314 52.096607,550.997375 
	C115.231071,551.000488 178.365540,551.000000 242.500000,551.000000 
M128.000076,74.640785 
	C127.826698,73.025887 128.850113,70.904633 125.628853,70.950706 
	C115.855171,71.090492 106.078224,71.001297 96.244949,71.001297 
	C96.244949,76.558380 96.244949,81.630051 96.244949,86.752319 
	C106.896416,86.752319 117.301277,86.752319 128.000076,86.752319 
	C128.000076,82.873993 128.000076,79.239777 128.000076,74.640785 
z"/>
<path fill="#040404" opacity="1.000000" stroke="none" 
	d="
M410.924194,76.050797 
	C444.355804,124.796616 475.884888,174.259766 500.548218,227.753906 
	C508.698547,245.431854 516.006531,263.523224 518.874451,282.920013 
	C522.419312,306.895416 517.464539,329.677185 506.948883,351.199097 
	C482.540619,401.154480 429.158112,429.396515 374.175140,421.817902 
	C320.456085,414.413513 277.061890,373.022400 266.201508,319.435852 
	C261.018890,293.864227 266.271088,269.936584 275.610718,246.336884 
	C291.217529,206.901199 312.193024,170.282364 334.738373,134.566772 
	C350.448975,109.678513 367.208069,85.449158 383.647888,61.025810 
	C389.032349,53.026569 394.823425,53.164745 400.425018,61.028023 
	C403.900177,65.906288 407.304535,70.834991 410.924194,76.050797 
M281.911682,279.491547 
	C279.117950,291.217896 279.743256,302.930023 281.832214,314.688202 
	C290.135254,361.422729 325.752838,396.510986 374.195160,405.570862 
	C417.546661,413.678650 464.643951,391.844421 487.963104,352.518982 
	C500.262970,331.776520 506.291626,309.385559 503.022644,285.178162 
	C500.527435,266.700531 493.296112,249.640106 485.474396,232.920761 
	C459.944489,178.349121 427.230743,128.047470 393.142731,78.581551 
	C392.823578,78.118446 392.226898,77.846588 391.626831,77.382637 
	C364.387360,116.783173 338.391510,156.594955 315.820526,198.539917 
	C302.031342,224.165131 288.865570,250.083786 281.911682,279.491547 
z"/>
<path fill="#060606" opacity="1.000000" stroke="none" 
	d="
M556.986633,347.999939 
	C556.986633,326.362152 556.986633,305.224304 556.986633,283.668030 
	C554.131470,283.668030 551.555237,283.668030 548.621582,283.668030 
	C548.621582,278.872955 548.621582,274.486633 548.621582,269.782501 
	C559.850769,269.782501 571.117310,269.782501 583.288208,269.782501 
	C585.925842,288.046478 588.589783,306.492004 591.413696,326.045258 
	C594.283936,306.532623 596.986938,288.156769 599.698364,269.723938 
	C611.538391,269.723938 622.783325,269.723938 634.304871,269.723938 
	C634.304871,274.230591 634.304871,278.497498 634.304871,283.357056 
	C631.792358,283.474823 629.207886,283.595947 626.298401,283.732330 
	C626.298401,312.610321 626.298401,341.482544 626.298401,370.698608 
	C629.002563,370.698608 631.633362,370.698608 634.551147,370.698608 
	C634.551147,375.411163 634.551147,379.784485 634.551147,384.429749 
	C623.447021,384.429749 612.520508,384.429749 601.201904,384.429749 
	C601.201904,380.062683 601.201904,375.676880 601.201904,370.940033 
	C603.637268,370.776886 606.206848,370.604767 609.574890,370.379150 
	C609.574890,340.843597 609.574890,311.451721 609.574890,282.059875 
	C609.445129,282.020325 609.315308,281.980774 609.185547,281.941223 
	C608.151245,289.240234 607.212646,296.554321 606.065491,303.835541 
	C602.002625,329.623749 597.887024,355.403717 593.739685,381.178528 
	C593.184814,384.626495 593.047180,384.604340 587.524231,384.476715 
	C582.014648,350.450165 576.470764,316.211670 570.717834,280.682373 
	C570.717834,311.370544 570.717834,340.725098 570.717834,370.386627 
	C574.001343,370.589355 576.744141,370.758698 579.659302,370.938690 
	C579.659302,375.423523 579.659302,379.705475 579.659302,384.344025 
	C569.363953,384.344025 559.137146,384.344025 548.583862,384.344025 
	C548.583862,379.914551 548.583862,375.532806 548.583862,370.896759 
	C551.313843,370.762238 553.938049,370.632904 556.986633,370.482697 
	C556.986633,363.080841 556.986633,355.790375 556.986633,347.999939 
z"/>
<path fill="#090909" opacity="1.000000" stroke="none" 
	d="
M1052.357422,363.999634 
	C1052.356567,351.673126 1052.358154,339.846649 1052.351929,328.020142 
	C1052.351196,326.688080 1052.446533,325.335938 1052.256714,324.027985 
	C1051.793823,320.838165 1052.216187,316.865295 1047.246704,316.915344 
	C1043.699951,316.951050 1040.405762,320.632446 1040.344116,324.760803 
	C1040.242188,331.588348 1040.359741,338.419037 1040.367676,345.248383 
	C1040.377441,353.706940 1040.369873,362.165527 1040.369873,370.861115 
	C1042.464355,371.119019 1044.064575,371.316101 1046.033936,371.558624 
	C1046.033936,375.773315 1046.033936,379.982361 1046.033936,384.461426 
	C1037.425171,384.461426 1028.989502,384.461426 1020.183167,384.461426 
	C1020.183167,380.258087 1020.183167,376.043335 1020.183167,371.554047 
	C1021.806152,371.373688 1023.405273,371.195984 1025.375244,370.977081 
	C1025.375244,353.384613 1025.375244,335.863983 1025.375244,318.066376 
	C1023.643860,317.902771 1021.882385,317.736267 1019.934204,317.552155 
	C1019.934204,313.126984 1019.934204,308.872437 1019.934204,304.410889 
	C1026.653931,304.410889 1033.106567,304.410889 1039.834351,304.410889 
	C1040.179810,306.040771 1040.532227,307.703308 1040.911621,309.493469 
	C1052.347046,301.113678 1055.677368,301.243774 1064.484619,310.281403 
	C1064.877441,310.093262 1065.427490,309.998138 1065.705566,309.671509 
	C1070.539795,303.991974 1076.546875,301.927246 1083.600830,304.507904 
	C1090.589966,307.064850 1092.593140,313.330658 1092.799927,319.820465 
	C1093.271973,334.631531 1093.151123,349.461517 1093.265747,364.283875 
	C1093.282227,366.407471 1093.267944,368.531342 1093.267944,370.875885 
	C1095.370850,371.132416 1096.976929,371.328369 1098.920898,371.565521 
	C1098.920898,375.825470 1098.920898,380.040466 1098.920898,384.493683 
	C1092.255249,384.493683 1085.803711,384.493683 1078.666504,384.493683 
	C1078.666504,382.737091 1078.663696,380.971497 1078.666992,379.205902 
	C1078.698242,362.215759 1078.732788,345.225616 1078.758911,328.235474 
	C1078.761475,326.570282 1078.820068,324.895111 1078.665894,323.242004 
	C1078.384521,320.226562 1078.255737,316.769714 1074.010498,316.915009 
	C1070.094849,317.049011 1066.990234,319.357910 1066.922485,323.275879 
	C1066.649170,339.066345 1066.809204,354.864319 1066.809204,370.921936 
	C1068.780396,371.137024 1070.373779,371.310883 1072.343262,371.525787 
	C1072.343262,375.796021 1072.343262,379.992035 1072.343262,384.460571 
	C1065.792114,384.460571 1059.383667,384.460571 1052.357300,384.460571 
	C1052.357300,377.712708 1052.357300,371.106171 1052.357422,363.999634 
z"/>
<path fill="#040404" opacity="1.000000" stroke="none" 
	d="
M553.616455,568.350464 
	C552.337280,567.654907 550.823608,567.004272 550.774841,566.257751 
	C550.527710,562.477173 550.661072,558.671692 550.661072,554.564697 
	C553.512451,554.436035 555.951843,554.325989 558.690796,554.202393 
	C558.690796,525.343506 558.690796,496.496704 558.690796,467.297821 
	C556.129578,467.297821 553.678040,467.297821 550.946899,467.297821 
	C550.946899,462.552887 550.946899,458.155365 550.946899,452.835236 
	C561.041565,453.299072 571.032837,453.068024 580.814270,454.389740 
	C591.967102,455.896729 599.182556,463.226013 603.229553,473.533966 
	C609.790527,490.245148 609.959351,507.731964 608.294983,525.184265 
	C607.532532,533.179504 605.603821,541.303589 602.727844,548.803040 
	C597.920227,561.339478 587.953735,567.696045 574.526978,568.221252 
	C567.712585,568.487793 560.881287,568.321655 553.616455,568.350464 
M575.406067,474.700806 
	C575.406067,501.124512 575.406067,527.548218 575.406067,553.967590 
	C582.924744,553.989563 587.130310,550.072693 588.956848,541.054565 
	C592.327332,524.413147 591.557312,507.588959 590.326355,490.823120 
	C589.930359,485.428772 588.610413,479.978973 586.869934,474.840149 
	C584.996765,469.309906 581.158813,467.342651 575.406128,467.936279 
	C575.406128,469.837860 575.406128,471.802856 575.406067,474.700806 
z"/>
<path fill="#050505" opacity="1.000000" stroke="none" 
	d="
M563.186279,195.822906 
	C556.135132,187.808151 553.874695,178.255020 552.635864,168.450989 
	C550.009827,147.668839 549.631226,126.874458 555.091125,106.456955 
	C556.562256,100.955490 559.052002,95.357727 562.426270,90.806656 
	C570.781616,79.537247 585.537537,80.113617 593.711060,91.539062 
	C599.084595,99.050499 601.422913,107.776993 602.551208,116.727402 
	C605.105652,136.990768 605.465393,157.274277 600.870605,177.336029 
	C599.880920,181.657166 598.208313,185.954315 596.109558,189.864975 
	C588.956543,203.193329 575.085022,205.717346 563.186279,195.822906 
M586.539795,138.719086 
	C586.330811,131.725815 586.313049,124.719742 585.845398,117.743820 
	C585.535339,113.117638 585.126465,108.355621 583.697815,104.003693 
	C582.920227,101.634926 580.192261,98.839996 577.861877,98.293793 
	C574.236267,97.443970 572.477295,100.929604 571.470825,104.037323 
	C570.758911,106.235649 570.134766,108.583115 570.120911,110.867943 
	C569.994690,131.659805 569.942078,152.452957 570.069336,173.244507 
	C570.086182,175.997330 570.658020,179.081375 572.021851,181.393082 
	C573.275024,183.517181 575.884888,185.989639 578.007629,186.095688 
	C579.768555,186.183685 582.143860,183.328247 583.407043,181.262985 
	C584.554993,179.386185 584.909546,176.834793 585.029053,174.550201 
	C585.637634,162.916763 586.056213,151.273376 586.539795,138.719086 
z"/>
<path fill="#090909" opacity="1.000000" stroke="none" 
	d="
M810.384155,399.807678 
	C822.515381,399.541443 827.191101,392.061462 824.369934,377.895050 
	C823.946289,378.157501 823.496094,378.320892 823.205811,378.632996 
	C814.649353,387.831696 804.110229,386.186981 799.511230,374.433777 
	C797.361816,368.940948 795.717834,362.869873 795.623413,357.032074 
	C795.422363,344.607819 796.375061,332.164398 796.890442,319.730286 
	C796.924133,318.916656 797.262878,318.116333 797.454285,317.308533 
	C800.484497,304.520935 811.843994,298.358521 824.315918,308.905090 
	C824.699036,307.363770 825.022583,306.062500 825.416687,304.477173 
	C832.237000,304.477173 839.148315,304.477173 846.351685,304.477173 
	C846.351685,308.784088 846.351685,312.876312 846.351685,317.434235 
	C844.358276,317.628937 842.312195,317.828796 839.856812,318.068634 
	C839.856812,328.790405 839.863098,339.416595 839.854980,350.042786 
	C839.847656,359.703125 839.871277,369.363861 839.781128,379.023529 
	C839.753235,382.011353 839.592102,385.024567 839.160522,387.977722 
	C835.984253,409.712036 813.756165,419.266327 795.004089,406.607422 
	C797.092346,403.495514 799.184753,400.377441 801.297729,397.228699 
	C804.332886,398.119781 807.158752,398.949402 810.384155,399.807678 
M810.031372,335.640594 
	C810.295532,343.938812 810.310852,352.254669 810.897888,360.529999 
	C811.422058,367.918915 813.897644,371.346191 817.627991,371.210693 
	C821.583984,371.067047 824.647949,367.083527 824.836243,360.138397 
	C825.137634,349.019104 824.862976,337.881836 824.692322,326.754303 
	C824.662292,324.798370 824.502869,322.433868 823.419373,321.003113 
	C821.880981,318.971649 819.516663,316.517365 817.342407,316.349152 
	C815.618896,316.215851 812.587585,318.937958 812.008606,320.934845 
	C810.732605,325.335785 810.638855,330.079498 810.031372,335.640594 
z"/>
<path fill="#0C0C0C" opacity="1.000000" stroke="none" 
	d="
M938.826355,384.165985 
	C938.469910,366.003052 938.416626,348.178162 938.354248,330.353302 
	C938.346130,328.020721 938.434326,325.675201 938.222717,323.359009 
	C937.955139,320.431183 938.153015,316.991730 933.759949,316.875824 
	C930.445129,316.788361 926.816345,320.304962 926.757751,324.012970 
	C926.636658,331.677277 926.758789,339.345337 926.767456,347.011841 
	C926.776428,354.978577 926.769409,362.945312 926.769409,370.990967 
	C928.936401,371.185303 930.551758,371.330170 932.484131,371.503479 
	C932.484131,375.752594 932.484131,379.840637 932.484131,384.335693 
	C924.057434,384.335693 915.497986,384.335693 906.539185,384.335693 
	C906.539185,380.330475 906.539185,376.255676 906.539185,371.775513 
	C908.033630,371.499878 909.759216,371.181610 911.770142,370.810730 
	C911.770142,353.371826 911.770142,335.938019 911.770142,318.126221 
	C910.071289,317.955933 908.320129,317.780396 906.196899,317.567566 
	C906.196899,313.225006 906.196899,308.863312 906.196899,304.411621 
	C912.973083,304.411621 919.593811,304.411621 926.503967,304.411621 
	C926.721069,306.114532 926.916504,307.646881 927.192688,309.813049 
	C928.619507,308.478485 929.509644,307.571136 930.476013,306.753906 
	C937.549927,300.771637 947.312317,302.906036 950.593994,311.557556 
	C952.034119,315.354126 952.642822,319.656860 952.716614,323.746246 
	C952.969055,337.741486 952.817078,351.744049 952.819214,365.743805 
	C952.819458,367.386322 952.819153,369.028870 952.819153,370.965881 
	C954.897400,371.181152 956.631226,371.360718 958.572815,371.561798 
	C958.572815,375.931061 958.572815,380.016052 958.572815,384.504059 
	C951.994080,384.504059 945.560364,384.504059 938.826355,384.165985 
z"/>
<path fill="#070707" opacity="1.000000" stroke="none" 
	d="
M766.845093,337.291290 
	C766.763916,332.209076 766.839172,327.541992 766.554138,322.897034 
	C766.299072,318.738525 764.696594,315.294586 759.834167,315.113037 
	C754.837463,314.926422 752.899902,318.270325 751.995422,322.549316 
	C751.830505,323.329468 751.719849,324.121063 751.506348,325.357880 
	C747.095947,324.149841 742.984314,323.023651 738.938721,321.915558 
	C739.019592,311.131836 747.690857,302.937592 759.054138,302.634888 
	C771.223938,302.310669 780.440796,310.008179 780.847961,321.784729 
	C781.348145,336.250549 781.099121,350.742249 781.171265,365.222778 
	C781.180237,367.022644 781.172485,368.822540 781.172485,370.840942 
	C783.363770,371.111877 785.125366,371.329681 787.250000,371.592377 
	C787.250000,375.674255 787.250000,379.752106 787.250000,384.276245 
	C780.687805,384.276245 773.980225,384.276245 767.085205,384.276245 
	C766.939026,382.628754 766.785400,380.897797 766.631836,379.166840 
	C766.211731,378.854858 765.791687,378.542877 765.371582,378.230865 
	C764.843689,379.223999 764.525879,380.435822 763.755066,381.176086 
	C756.782715,387.872009 746.877075,386.859222 741.266357,378.957397 
	C734.935669,370.041595 734.576904,353.024017 740.524170,343.751495 
	C745.931946,335.320129 755.324036,333.198730 763.906982,338.422089 
	C764.996155,339.084869 766.750122,341.573395 766.845093,337.291290 
M764.293762,348.989716 
	C758.383240,346.459686 753.957581,347.319000 752.974731,352.310913 
	C751.957886,357.476227 752.226074,363.074585 752.954285,368.342224 
	C753.468872,372.064972 756.997070,373.562286 760.691528,372.803192 
	C764.344299,372.052673 767.053894,370.127045 766.897278,365.728943 
	C766.761536,361.916840 767.054138,358.082855 766.782593,354.285370 
	C766.665833,352.653076 765.601746,351.088593 764.293762,348.989716 
z"/>
<path fill="#080808" opacity="1.000000" stroke="none" 
	d="
M970.649780,369.344788 
	C966.880249,352.286438 966.691223,335.588562 970.812256,319.012665 
	C973.598022,307.807556 980.238403,302.457489 989.820679,302.585724 
	C995.967957,302.668030 1000.765076,305.195068 1004.138062,310.251343 
	C1005.509949,312.307831 1006.844482,314.539368 1007.520691,316.885895 
	C1012.806824,335.227966 1013.090759,353.720123 1007.523010,371.972473 
	C1003.848572,384.018097 993.746704,389.235138 983.154175,385.527039 
	C975.717773,382.923798 972.786621,376.649445 970.649780,369.344788 
M983.278931,332.792908 
	C983.412292,342.605713 983.467712,352.420624 983.733337,362.229858 
	C983.799988,364.692017 984.188538,367.277832 985.098755,369.537079 
	C985.680542,370.981262 987.449890,372.814941 988.761780,372.876434 
	C990.386536,372.952637 992.447998,371.707306 993.646790,370.410034 
	C994.650146,369.324158 995.070984,367.346710 995.087158,365.757324 
	C995.229492,351.805664 995.247192,337.852448 995.220764,323.899811 
	C995.218323,322.605927 995.036316,320.988312 994.270203,320.090668 
	C992.888000,318.471252 991.088928,316.386200 989.295471,316.209839 
	C987.960815,316.078613 985.510742,318.415649 985.049438,320.069550 
	C983.990845,323.864624 983.844116,327.914093 983.278931,332.792908 
z"/>
<path fill="#090909" opacity="1.000000" stroke="none" 
	d="
M1140.955811,348.695923 
	C1134.986206,348.695923 1129.509644,348.695923 1122.661499,348.695923 
	C1123.544434,355.621399 1124.031982,362.154572 1125.404297,368.496246 
	C1125.796265,370.307739 1128.847412,372.865082 1130.511475,372.745605 
	C1132.592041,372.596252 1135.028442,370.386536 1136.331909,368.417877 
	C1137.621948,366.469513 1137.693115,363.714264 1138.510864,360.472870 
	C1142.517700,361.930084 1146.467651,363.366577 1150.971069,365.004395 
	C1148.783813,372.906982 1145.739990,379.881317 1138.561401,384.225677 
	C1130.537964,389.081268 1119.445801,386.468842 1114.484497,378.193268 
	C1112.386719,374.694000 1110.849121,370.631195 1110.042847,366.626068 
	C1107.116821,352.093475 1107.229736,337.459412 1110.123779,322.927094 
	C1110.861450,319.223572 1112.188354,315.489960 1113.984985,312.171112 
	C1120.590454,299.969543 1136.474243,299.020081 1144.622437,310.244476 
	C1146.168579,312.374329 1147.481934,314.783325 1148.380859,317.253418 
	C1152.052002,327.341187 1151.309082,337.828522 1151.289185,348.695953 
	C1147.710693,348.695953 1144.579712,348.695953 1140.955811,348.695923 
M1125.289795,318.003693 
	C1124.376831,324.110046 1123.463989,330.216400 1122.515869,336.557770 
	C1128.096313,336.557770 1132.286865,336.557770 1137.311646,336.557770 
	C1136.761963,330.871582 1136.776978,325.524261 1135.612549,320.447418 
	C1134.306641,314.753754 1130.232056,313.755920 1125.289795,318.003693 
z"/>
<path fill="#070707" opacity="1.000000" stroke="none" 
	d="
M653.020752,306.976135 
	C663.805176,299.283691 675.748047,301.611328 681.477600,313.115479 
	C684.136475,318.454254 685.236206,324.772949 686.024841,330.781036 
	C686.771179,336.466705 686.185181,342.327240 686.185181,348.632660 
	C677.045715,348.632660 667.976929,348.632660 657.937256,348.632660 
	C658.621704,355.100494 659.069092,360.994293 659.932068,366.826599 
	C660.410339,370.058716 661.821045,373.114197 665.856567,373.049255 
	C669.683472,372.987671 671.243286,370.188385 672.143311,366.968597 
	C672.673401,365.072388 672.987122,363.115662 673.568115,360.388519 
	C677.731384,361.936005 681.795349,363.446594 686.985107,365.375641 
	C684.209473,370.419525 682.303345,375.481415 679.066528,379.460907 
	C669.933044,390.689972 653.768372,388.658722 648.181702,375.338928 
	C645.541138,369.043304 643.940613,361.855377 643.854004,355.046539 
	C643.707031,343.484497 644.578003,331.825745 646.166931,320.366547 
	C646.804077,315.771240 650.472046,311.596191 653.020752,306.976135 
M663.683838,336.946320 
	C666.292664,336.946320 668.901489,336.946320 672.618591,336.946320 
	C671.866272,330.650604 671.574646,324.886414 670.284058,319.355286 
	C669.876343,317.607849 666.766174,315.350098 664.948792,315.399109 
	C663.194458,315.446442 660.524963,317.892029 660.000977,319.770477 
	C658.859314,323.862640 658.871033,328.269836 658.326599,332.537476 
	C657.884155,336.006165 659.248535,337.522705 663.683838,336.946320 
z"/>
<path fill="#080808" opacity="1.000000" stroke="none" 
	d="
M888.157715,307.814453 
	C894.101990,313.911102 895.947449,321.353119 896.527344,329.066772 
	C896.998962,335.340973 896.623108,341.678894 896.623108,348.496399 
	C887.562561,348.496399 878.488403,348.496399 868.380127,348.496399 
	C869.083984,355.126587 869.259644,361.266541 870.598083,367.141571 
	C871.120361,369.434113 874.252258,372.672211 876.206604,372.679993 
	C878.302856,372.688354 880.845703,369.700317 882.377625,367.461548 
	C883.585266,365.696777 883.554810,363.084839 884.171387,360.431213 
	C888.335876,361.975525 892.177673,363.400116 895.958862,364.802246 
	C894.904419,378.326050 883.773315,388.256805 872.162170,386.276703 
	C865.930542,385.213959 861.152771,381.863190 858.936707,376.065186 
	C856.881165,370.687286 854.779236,364.922699 854.667053,359.289154 
	C854.419861,346.875610 855.274902,334.429077 856.010925,322.015625 
	C856.172119,319.297760 857.491089,316.559448 858.659363,314.005554 
	C864.348206,301.569336 877.364929,298.742523 888.157715,307.814453 
M870.717224,336.940338 
	C874.499878,336.940338 878.282471,336.940338 883.320129,336.940338 
	C882.397827,330.446503 881.910583,324.540833 880.525269,318.854004 
	C880.137695,317.262878 877.204224,315.599579 875.247620,315.323578 
	C873.917358,315.135925 871.098694,317.161591 870.937378,318.447418 
	C870.173706,324.532684 870.095398,330.703918 870.717224,336.940338 
z"/>
<path fill="#070707" opacity="1.000000" stroke="none" 
	d="
M653.251343,177.972900 
	C653.251343,151.184647 653.251343,124.891556 653.251343,98.333534 
	C651.439819,98.137413 649.860046,97.966377 648.041199,97.769463 
	C648.041199,93.583603 648.041199,89.492607 648.041199,85.049149 
	C654.581604,85.049149 661.126526,85.049149 667.967957,85.049149 
	C667.967957,118.741646 667.967957,152.358353 667.967957,186.121338 
	C669.643982,186.413727 671.062744,186.661224 672.508179,186.913376 
	C672.508179,191.214279 672.508179,195.310196 672.508179,199.654175 
	C664.346802,199.654175 656.423889,199.654175 648.142334,199.654175 
	C648.142334,195.450653 648.142334,191.229965 648.142334,186.834412 
	C649.593750,186.642761 651.053101,186.450058 653.251343,186.159805 
	C653.251343,183.636459 653.251343,181.052277 653.251343,177.972900 
z"/>
<path fill="#090909" opacity="1.000000" stroke="none" 
	d="
M694.111328,310.999878 
	C694.111328,308.708954 694.111328,306.883453 694.111328,304.576385 
	C696.319641,304.360687 698.389893,304.158508 700.216309,303.980103 
	C701.183960,299.260590 700.963501,293.828705 703.408447,290.185547 
	C706.011292,286.307098 711.137207,284.121948 715.737732,280.778656 
	C715.737732,288.674835 715.737732,296.162567 715.737732,304.051544 
	C719.029419,304.051544 721.779968,304.051544 724.947998,304.051544 
	C724.947998,308.662048 724.947998,312.869415 724.947998,317.585663 
	C722.170105,317.585663 719.284302,317.585663 715.960815,317.585663 
	C715.960815,334.342163 715.810120,350.604706 716.059692,366.861084 
	C716.127869,371.296600 719.243958,373.179016 723.695984,372.503540 
	C724.957947,372.312042 726.196960,371.968933 727.746094,371.629730 
	C727.746094,375.883667 727.746094,379.796661 727.746094,384.151642 
	C724.868530,384.620026 722.120056,385.249268 719.338074,385.488007 
	C708.584167,386.410736 702.538879,381.932617 701.948242,371.134003 
	C701.149536,356.529510 701.370361,341.868988 701.170715,327.232269 
	C701.130310,324.268463 701.164978,321.303680 701.164978,317.987152 
	C698.764526,317.857391 696.696594,317.745636 694.111328,317.605896 
	C694.111328,315.358490 694.111328,313.411896 694.111328,310.999878 
z"/>
<path fill="#080808" opacity="1.000000" stroke="none" 
	d="
M674.797058,568.383301 
	C666.683472,568.383301 659.043823,568.383301 651.210022,568.383301 
	C651.210022,563.861145 651.210022,559.763062 651.210022,555.324524 
	C653.415894,555.143860 655.488159,554.974182 657.858337,554.780029 
	C657.858337,537.083984 657.858337,519.519287 657.858337,501.761505 
	C655.629028,501.580658 653.524658,501.409943 651.223877,501.223297 
	C651.223877,496.922974 651.223877,492.818939 651.223877,488.353699 
	C658.320679,488.353699 665.354553,488.353699 672.734070,488.353699 
	C672.734070,492.755188 672.734070,497.037323 672.734070,501.319458 
	C677.161804,494.192810 680.861145,486.565430 691.499512,487.392639 
	C691.499512,492.199982 691.499512,497.057983 691.499512,502.168457 
	C690.780334,502.293579 689.987732,502.457062 689.187744,502.566742 
	C679.330078,503.918243 673.858887,508.703766 673.263855,518.683594 
	C672.553589,530.597839 673.096436,542.586792 673.096436,554.879700 
	C675.620361,554.879700 677.891541,554.879700 680.559753,554.879700 
	C680.559753,559.437073 680.559753,563.666809 680.559753,568.383362 
	C678.875793,568.383362 677.073425,568.383362 674.797058,568.383301 
z"/>
<path fill="#090909" opacity="1.000000" stroke="none" 
	d="
M638.765381,548.887939 
	C638.765381,551.014954 638.765381,552.658447 638.765381,554.138733 
	C647.131775,556.958557 641.026794,563.477600 643.679504,568.106079 
	C634.732117,568.106079 626.662109,568.106079 618.421936,568.106079 
	C618.421936,563.771484 618.421936,559.683594 618.421936,555.329224 
	C620.209473,555.125000 621.806580,554.942566 623.708374,554.725281 
	C623.708374,537.180420 623.708374,519.610535 623.708374,501.815277 
	C622.136353,501.633881 620.534302,501.449005 618.569641,501.222290 
	C618.569641,496.987610 618.569641,492.801392 618.569641,488.313782 
	C625.105408,488.313782 631.527161,488.313782 638.765381,488.313782 
	C638.765381,508.309387 638.765381,528.356873 638.765381,548.887939 
z"/>
<path fill="#020202" opacity="1.000000" stroke="none" 
	d="
M614.966064,191.183090 
	C615.035645,189.433212 615.105225,188.151428 615.184753,186.686996 
	C617.076477,186.555542 618.706360,186.442291 620.631226,186.308548 
	C620.631226,168.630798 620.631226,151.068939 620.631226,133.079041 
	C618.937317,133.001144 617.198547,132.921204 615.218140,132.830139 
	C615.218140,128.418793 615.218140,124.177551 615.218140,119.722664 
	C621.812073,119.722664 628.251770,119.722664 635.124268,119.722664 
	C635.124268,141.843857 635.124268,163.767914 635.124268,185.837646 
	C636.883301,186.277100 638.269897,186.623489 639.790100,187.003265 
	C639.790100,191.154068 639.790100,195.256744 639.790100,199.627533 
	C631.558472,199.627533 623.496643,199.627533 614.966064,199.627533 
	C614.966064,196.885986 614.966064,194.268585 614.966064,191.183090 
z"/>
<path fill="#090909" opacity="1.000000" stroke="none" 
	d="
M625.216064,467.824799 
	C619.692749,461.200958 621.377502,453.467651 628.443359,451.733307 
	C632.752930,450.675476 636.496094,451.854095 638.788757,455.757446 
	C641.015076,459.547943 640.816711,463.529999 637.701782,466.794250 
	C634.121033,470.546539 629.913757,470.844757 625.216064,467.824799 
z"/>
<path fill="#070707" opacity="1.000000" stroke="none" 
	d="
M623.983398,100.500046 
	C619.161194,97.726738 617.333618,93.907654 619.002563,88.980881 
	C620.430725,84.765045 623.652100,82.654434 628.209595,82.897087 
	C632.804504,83.141739 635.664490,85.700668 636.668884,90.012489 
	C638.272949,96.899109 631.739868,103.283455 623.983398,100.500046 
z"/>
<path fill="#FFFFFF" opacity="1.000000" stroke="none" 
	d="
M242.000000,551.000000 
	C178.365540,551.000000 115.231071,551.000488 52.096607,550.997375 
	C50.431278,550.997314 48.728878,551.174561 47.107800,550.896240 
	C42.809196,550.158142 40.283520,547.553772 40.059452,543.132385 
	C39.848042,538.960754 42.970490,535.572693 47.325455,535.067383 
	C48.641869,534.914551 49.987705,535.001892 51.320068,535.001892 
	C166.428024,534.999817 281.535980,534.999634 396.643921,535.003723 
	C398.142059,535.003784 399.685211,534.838196 401.129913,535.131409 
	C405.410370,536.000122 407.938019,538.687073 407.911530,543.106140 
	C407.886414,547.298645 405.403351,549.893494 401.400909,550.817932 
	C399.811890,551.184937 398.085419,550.994385 396.421539,550.994629 
	C345.114349,551.001221 293.807190,551.000000 242.000000,551.000000 
z"/>
<path fill="#FFFFFF" opacity="1.000000" stroke="none" 
	d="
M128.000076,75.123169 
	C128.000076,79.239777 128.000076,82.873993 128.000076,86.752319 
	C117.301277,86.752319 106.896416,86.752319 96.244949,86.752319 
	C96.244949,81.630051 96.244949,76.558380 96.244949,71.001297 
	C106.078224,71.001297 115.855171,71.090492 125.628853,70.950706 
	C128.850113,70.904633 127.826698,73.025887 128.000076,75.123169 
z"/>
<path fill="#FCFCFC" opacity="1.000000" stroke="none" 
	d="
M281.964722,279.071716 
	C288.865570,250.083786 302.031342,224.165131 315.820526,198.539917 
	C338.391510,156.594955 364.387360,116.783173 391.626831,77.382637 
	C392.226898,77.846588 392.823578,78.118446 393.142731,78.581551 
	C427.230743,128.047470 459.944489,178.349121 485.474396,232.920761 
	C493.296112,249.640106 500.527435,266.700531 503.022644,285.178162 
	C506.291626,309.385559 500.262970,331.776520 487.963104,352.518982 
	C464.643951,391.844421 417.546661,413.678650 374.195160,405.570862 
	C325.752838,396.510986 290.135254,361.422729 281.832214,314.688202 
	C279.743256,302.930023 279.117950,291.217896 281.964722,279.071716 
M296.798584,291.741089 
	C296.832520,297.004791 296.399048,302.320068 296.973541,307.524078 
	C302.065399,353.650757 344.144348,391.142822 390.421082,390.975952 
	C396.267517,390.954865 399.895111,387.970367 399.972015,383.118164 
	C400.049225,378.246185 396.548462,375.182465 390.666962,374.974854 
	C346.583069,373.418610 313.754303,340.524689 312.048401,296.112579 
	C311.892181,292.044983 310.546478,288.912842 306.580963,287.516266 
	C302.582184,286.108002 299.446655,287.596069 296.798584,291.741089 
M433.339539,330.629517 
	C434.650116,329.381927 435.960693,328.134308 436.200562,327.905945 
	C440.024841,328.665710 443.891479,330.615753 445.293427,329.491730 
	C449.575958,326.058105 443.963348,323.780182 443.011047,320.445984 
	C445.125488,317.421600 447.353607,314.234589 449.581757,311.047546 
	C449.774658,311.530762 449.967590,312.013977 450.160522,312.497192 
	C452.687805,312.316956 456.305634,313.118286 457.526337,311.762054 
	C460.514801,308.441772 456.024475,307.137390 454.774567,304.796509 
	C453.795563,302.962982 455.165680,299.757416 455.768127,297.227142 
	C456.509827,294.112183 457.222870,290.927917 461.935669,292.217255 
	C462.876770,292.474701 465.155365,290.798248 465.445496,289.662933 
	C465.745850,288.487854 464.562897,285.803131 463.706940,285.656464 
	C459.759003,284.979950 458.867035,282.752563 458.590149,279.159607 
	C458.494690,277.921295 455.983978,276.869141 454.576599,275.731964 
	C453.678833,277.125519 452.334534,278.417480 451.988983,279.936615 
	C451.482513,282.163391 452.130005,284.674072 451.527710,286.854370 
	C444.655060,311.734344 429.851807,329.617401 405.191833,338.558929 
	C397.516602,341.341919 391.612640,338.969147 389.100891,332.435059 
	C386.440674,325.514740 389.669464,317.883545 396.686462,315.192719 
	C413.209015,308.856781 423.825623,297.111511 429.258026,280.406738 
	C431.394104,273.838348 435.507111,270.956635 442.346741,271.213928 
	C444.977142,271.312927 447.241852,271.102997 447.418182,267.976685 
	C447.605652,264.653931 445.221375,264.046478 442.454590,263.779205 
	C435.153198,263.073853 429.643341,266.309174 425.142517,271.885834 
	C424.129547,271.037537 423.575165,270.201599 422.885162,270.068451 
	C421.154541,269.734497 419.362549,269.718628 417.595184,269.575165 
	C417.758179,271.530975 417.565369,273.607117 418.175690,275.411621 
	C418.910309,277.583618 421.675629,279.952545 421.189789,281.483337 
	C419.876740,285.620178 417.306396,289.358002 415.343964,293.048859 
	C411.291107,292.131958 409.717133,285.800140 405.837250,289.338409 
	C401.527191,293.268890 407.750610,295.706726 408.858917,299.877075 
	C405.280579,302.173706 401.543030,304.572540 397.591949,307.108429 
	C396.790527,305.342163 396.606934,304.172211 395.923035,303.585541 
	C394.380768,302.262665 392.591003,301.228302 390.901947,300.076569 
	C390.415222,302.102875 389.038605,304.453369 389.633301,306.085693 
	C390.754425,309.163055 389.407776,310.517029 387.526703,312.396545 
	C376.760315,323.154144 380.039917,341.651123 393.653381,346.229340 
	C397.139252,347.401611 401.125885,347.084900 405.156891,347.479095 
	C405.284454,347.755432 405.632874,348.330139 405.822845,348.953125 
	C406.618073,351.561279 406.664642,355.384674 410.725189,354.311279 
	C414.604828,353.285706 412.918732,349.858215 412.727142,347.121857 
	C412.639404,345.868988 413.027618,343.965607 413.891632,343.383087 
	C416.157074,341.855621 418.802795,340.892151 421.355499,339.676025 
	C422.153046,340.925568 422.497742,342.072418 423.254456,342.515259 
	C424.531219,343.262482 426.473999,344.332611 427.390686,343.849976 
	C428.443970,343.295441 429.597290,340.683197 429.129944,339.859253 
	C426.445526,335.126251 429.946075,333.335052 433.339539,330.629517 
M394.079010,239.866089 
	C393.612610,238.238190 393.635742,236.108231 392.582947,235.081711 
	C389.996277,232.559433 390.062683,231.590836 393.704559,230.637573 
	C395.044281,230.286896 396.822357,228.346130 396.837250,227.111740 
	C396.852356,225.862823 395.061737,224.438156 393.813477,223.385117 
	C393.054840,222.745102 391.825409,222.663132 391.212433,222.462814 
	C392.268707,219.496582 393.186127,216.920303 394.103516,214.344009 
	C391.397003,213.741287 388.690460,213.138550 386.278839,212.601486 
	C386.087311,210.213821 385.877869,207.603027 385.668427,204.992249 
	C382.891388,205.770508 380.114349,206.548752 377.751801,207.210846 
	C376.432251,205.352615 374.928406,203.234879 373.424591,201.117142 
	C371.549713,203.199768 369.674835,205.282379 367.708221,207.466888 
	C360.614227,202.955505 360.614227,202.955505 359.978821,212.477066 
	C357.177307,213.118134 354.618347,213.703690 352.059418,214.289230 
	C353.047150,216.986679 354.034882,219.684143 355.120575,222.649048 
	C354.434265,222.832565 353.522949,222.827713 352.974762,223.271454 
	C351.574127,224.405258 350.335327,225.738953 349.031769,226.992661 
	C350.289856,228.270584 351.336151,230.204666 352.849091,230.692963 
	C356.234283,231.785568 355.945282,232.666168 353.752380,234.953400 
	C352.660950,236.091843 352.727783,238.340805 352.270691,240.087418 
	C354.012665,240.427063 355.744720,240.841599 357.500854,241.074585 
	C358.372101,241.190186 359.287598,240.972198 359.512024,240.955383 
	C360.041656,244.090134 360.496094,246.779877 360.950531,249.469635 
	C363.543121,248.494156 366.135712,247.518677 368.266022,246.717117 
	C369.705170,248.755951 371.204285,250.879745 372.703400,253.003555 
	C374.623169,250.803238 376.542908,248.602921 378.333008,246.551178 
	C380.158417,247.561188 382.302460,248.747482 384.446503,249.933792 
	C385.306549,246.999557 386.166626,244.065323 386.968445,241.329742 
	C388.837341,241.101883 391.274475,240.804764 394.079010,239.866089 
M435.335602,219.108978 
	C432.384979,218.355743 429.320587,216.681305 426.505951,217.028976 
	C419.232361,217.927444 415.015442,225.915222 417.236176,233.411484 
	C419.203400,240.051834 426.374847,243.626297 432.648102,241.093231 
	C439.184814,238.453812 442.169128,230.146805 438.837463,223.529602 
	C438.110168,222.085052 436.880219,220.893600 435.335602,219.108978 
M343.290985,287.870972 
	C350.088562,280.174469 348.112213,269.164246 339.402100,266.206085 
	C334.258606,264.459259 329.152039,266.330505 326.039551,271.102631 
	C322.764862,276.123444 323.351898,282.835724 327.446777,287.192993 
	C331.530212,291.538055 336.712128,291.942810 343.290985,287.870972 
M364.854065,280.294830 
	C364.105499,288.625122 368.120087,294.726227 374.871033,295.517944 
	C381.105225,296.249084 386.496918,292.147461 387.820343,285.666992 
	C389.126495,279.270996 385.346191,272.474335 379.625824,270.934021 
	C372.983734,269.145569 367.982483,272.105164 364.854065,280.294830 
M383.048767,169.857071 
	C381.099579,176.991898 382.370361,182.156769 387.064758,185.591309 
	C390.926483,188.416641 395.066956,188.684464 399.260406,186.376297 
	C403.753723,183.903061 406.020721,178.788345 405.278015,173.136932 
	C404.627655,168.188354 400.867554,163.715683 396.308960,162.888367 
	C390.558746,161.844833 386.257050,164.102814 383.048767,169.857071 
z"/>
<path fill="#F4F4F4" opacity="1.000000" stroke="none" 
	d="
M575.406128,474.234314 
	C575.406128,471.802856 575.406128,469.837860 575.406128,467.936279 
	C581.158813,467.342651 584.996765,469.309906 586.869934,474.840149 
	C588.610413,479.978973 589.930359,485.428772 590.326355,490.823120 
	C591.557312,507.588959 592.327332,524.413147 588.956848,541.054565 
	C587.130310,550.072693 582.924744,553.989563 575.406067,553.967590 
	C575.406067,527.548218 575.406067,501.124512 575.406128,474.234314 
z"/>
<path fill="#FBFBFB" opacity="1.000000" stroke="none" 
	d="
M586.540527,139.176285 
	C586.056213,151.273376 585.637634,162.916763 585.029053,174.550201 
	C584.909546,176.834793 584.554993,179.386185 583.407043,181.262985 
	C582.143860,183.328247 579.768555,186.183685 578.007629,186.095688 
	C575.884888,185.989639 573.275024,183.517181 572.021851,181.393082 
	C570.658020,179.081375 570.086182,175.997330 570.069336,173.244507 
	C569.942078,152.452957 569.994690,131.659805 570.120911,110.867943 
	C570.134766,108.583115 570.758911,106.235649 571.470825,104.037323 
	C572.477295,100.929604 574.236267,97.443970 577.861877,98.293793 
	C580.192261,98.839996 582.920227,101.634926 583.697815,104.003693 
	C585.126465,108.355621 585.535339,113.117638 585.845398,117.743820 
	C586.313049,124.719742 586.330811,131.725815 586.540527,139.176285 
z"/>
<path fill="#F7F7F7" opacity="1.000000" stroke="none" 
	d="
M810.046997,335.161987 
	C810.638855,330.079498 810.732605,325.335785 812.008606,320.934845 
	C812.587585,318.937958 815.618896,316.215851 817.342407,316.349152 
	C819.516663,316.517365 821.880981,318.971649 823.419373,321.003113 
	C824.502869,322.433868 824.662292,324.798370 824.692322,326.754303 
	C824.862976,337.881836 825.137634,349.019104 824.836243,360.138397 
	C824.647949,367.083527 821.583984,371.067047 817.627991,371.210693 
	C813.897644,371.346191 811.422058,367.918915 810.897888,360.529999 
	C810.310852,352.254669 810.295532,343.938812 810.046997,335.161987 
z"/>
<path fill="#F4F4F4" opacity="1.000000" stroke="none" 
	d="
M764.630859,349.241516 
	C765.601746,351.088593 766.665833,352.653076 766.782593,354.285370 
	C767.054138,358.082855 766.761536,361.916840 766.897278,365.728943 
	C767.053894,370.127045 764.344299,372.052673 760.691528,372.803192 
	C756.997070,373.562286 753.468872,372.064972 752.954285,368.342224 
	C752.226074,363.074585 751.957886,357.476227 752.974731,352.310913 
	C753.957581,347.319000 758.383240,346.459686 764.630859,349.241516 
z"/>
<path fill="#F4F4F4" opacity="1.000000" stroke="none" 
	d="
M983.303101,332.326599 
	C983.844116,327.914093 983.990845,323.864624 985.049438,320.069550 
	C985.510742,318.415649 987.960815,316.078613 989.295471,316.209839 
	C991.088928,316.386200 992.888000,318.471252 994.270203,320.090668 
	C995.036316,320.988312 995.218323,322.605927 995.220764,323.899811 
	C995.247192,337.852448 995.229492,351.805664 995.087158,365.757324 
	C995.070984,367.346710 994.650146,369.324158 993.646790,370.410034 
	C992.447998,371.707306 990.386536,372.952637 988.761780,372.876434 
	C987.449890,372.814941 985.680542,370.981262 985.098755,369.537079 
	C984.188538,367.277832 983.799988,364.692017 983.733337,362.229858 
	C983.467712,352.420624 983.412292,342.605713 983.303101,332.326599 
z"/>
<path fill="#F1F1F1" opacity="1.000000" stroke="none" 
	d="
M1125.503662,317.675293 
	C1130.232056,313.755920 1134.306641,314.753754 1135.612549,320.447418 
	C1136.776978,325.524261 1136.761963,330.871582 1137.311646,336.557770 
	C1132.286865,336.557770 1128.096313,336.557770 1122.515869,336.557770 
	C1123.463989,330.216400 1124.376831,324.110046 1125.503662,317.675293 
z"/>
<path fill="#F4F4F4" opacity="1.000000" stroke="none" 
	d="
M663.222534,336.946289 
	C659.248535,337.522705 657.884155,336.006165 658.326599,332.537476 
	C658.871033,328.269836 658.859314,323.862640 660.000977,319.770477 
	C660.524963,317.892029 663.194458,315.446442 664.948792,315.399109 
	C666.766174,315.350098 669.876343,317.607849 670.284058,319.355286 
	C671.574646,324.886414 671.866272,330.650604 672.618591,336.946320 
	C668.901489,336.946320 666.292664,336.946320 663.222534,336.946289 
z"/>
<path fill="#F1F1F1" opacity="1.000000" stroke="none" 
	d="
M870.245056,336.892456 
	C870.095398,330.703918 870.173706,324.532684 870.937378,318.447418 
	C871.098694,317.161591 873.917358,315.135925 875.247620,315.323578 
	C877.204224,315.599579 880.137695,317.262878 880.525269,318.854004 
	C881.910583,324.540833 882.397827,330.446503 883.320129,336.940338 
	C878.282471,336.940338 874.499878,336.940338 870.245056,336.892456 
z"/>
<path fill="#050505" opacity="1.000000" stroke="none" 
	d="
M296.950623,291.362640 
	C299.446655,287.596069 302.582184,286.108002 306.580963,287.516266 
	C310.546478,288.912842 311.892181,292.044983 312.048401,296.112579 
	C313.754303,340.524689 346.583069,373.418610 390.666962,374.974854 
	C396.548462,375.182465 400.049225,378.246185 399.972015,383.118164 
	C399.895111,387.970367 396.267517,390.954865 390.421082,390.975952 
	C344.144348,391.142822 302.065399,353.650757 296.973541,307.524078 
	C296.399048,302.320068 296.832520,297.004791 296.950623,291.362640 
z"/>
<path fill="#151515" opacity="1.000000" stroke="none" 
	d="
M433.051697,330.872437 
	C429.946075,333.335052 426.445526,335.126251 429.129944,339.859253 
	C429.597290,340.683197 428.443970,343.295441 427.390686,343.849976 
	C426.473999,344.332611 424.531219,343.262482 423.254456,342.515259 
	C422.497742,342.072418 422.153046,340.925568 421.355499,339.676025 
	C418.802795,340.892151 416.157074,341.855621 413.891632,343.383087 
	C413.027618,343.965607 412.639404,345.868988 412.727142,347.121857 
	C412.918732,349.858215 414.604828,353.285706 410.725189,354.311279 
	C406.664642,355.384674 406.618073,351.561279 405.822845,348.953125 
	C405.632874,348.330139 405.284454,347.755432 405.156891,347.479095 
	C401.125885,347.084900 397.139252,347.401611 393.653381,346.229340 
	C380.039917,341.651123 376.760315,323.154144 387.526703,312.396545 
	C389.407776,310.517029 390.754425,309.163055 389.633301,306.085693 
	C389.038605,304.453369 390.415222,302.102875 390.901947,300.076569 
	C392.591003,301.228302 394.380768,302.262665 395.923035,303.585541 
	C396.606934,304.172211 396.790527,305.342163 397.591949,307.108429 
	C401.543030,304.572540 405.280579,302.173706 408.858917,299.877075 
	C407.750610,295.706726 401.527191,293.268890 405.837250,289.338409 
	C409.717133,285.800140 411.291107,292.131958 415.343964,293.048859 
	C417.306396,289.358002 419.876740,285.620178 421.189789,281.483337 
	C421.675629,279.952545 418.910309,277.583618 418.175690,275.411621 
	C417.565369,273.607117 417.758179,271.530975 417.595154,269.575165 
	C419.362549,269.718628 421.154541,269.734497 422.885162,270.068451 
	C423.575165,270.201599 424.129547,271.037537 425.142517,271.885834 
	C429.643341,266.309174 435.153198,263.073853 442.454590,263.779205 
	C445.221375,264.046478 447.605652,264.653931 447.418182,267.976685 
	C447.241852,271.102997 444.977142,271.312927 442.346741,271.213928 
	C435.507111,270.956635 431.394104,273.838348 429.258026,280.406738 
	C423.825623,297.111511 413.209015,308.856781 396.686462,315.192719 
	C389.669464,317.883545 386.440674,325.514740 389.100891,332.435059 
	C391.612640,338.969147 397.516602,341.341919 405.191833,338.558929 
	C429.851807,329.617401 444.655060,311.734344 451.527710,286.854370 
	C452.130005,284.674072 451.482513,282.163391 451.988983,279.936615 
	C452.334534,278.417480 453.678833,277.125519 454.576599,275.731964 
	C455.983978,276.869141 458.494690,277.921295 458.590149,279.159607 
	C458.867035,282.752563 459.759003,284.979950 463.706940,285.656464 
	C464.562897,285.803131 465.745850,288.487854 465.445496,289.662933 
	C465.155365,290.798248 462.876770,292.474701 461.935669,292.217255 
	C457.222870,290.927917 456.509827,294.112183 455.768127,297.227142 
	C455.165680,299.757416 453.795563,302.962982 454.774567,304.796509 
	C456.024475,307.137390 460.514801,308.441772 457.526337,311.762054 
	C456.305634,313.118286 452.687805,312.316956 450.160522,312.497192 
	C449.967590,312.013977 449.774658,311.530762 449.581757,311.047546 
	C447.353607,314.234589 445.125488,317.421600 443.011047,320.445984 
	C443.963348,323.780182 449.575958,326.058105 445.293427,329.491730 
	C443.891479,330.615753 440.024841,328.665710 436.200562,327.905945 
	C435.960693,328.134308 434.650116,329.381927 433.051697,330.872437 
z"/>
<path fill="#141414" opacity="1.000000" stroke="none" 
	d="
M393.895325,240.186859 
	C391.274475,240.804764 388.837341,241.101883 386.968445,241.329742 
	C386.166626,244.065323 385.306549,246.999557 384.446503,249.933792 
	C382.302460,248.747482 380.158417,247.561188 378.333008,246.551178 
	C376.542908,248.602921 374.623169,250.803238 372.703400,253.003540 
	C371.204285,250.879745 369.705170,248.755951 368.266022,246.717117 
	C366.135712,247.518677 363.543121,248.494156 360.950531,249.469635 
	C360.496094,246.779877 360.041656,244.090134 359.512024,240.955383 
	C359.287598,240.972198 358.372101,241.190186 357.500854,241.074585 
	C355.744720,240.841599 354.012665,240.427063 352.270691,240.087418 
	C352.727783,238.340805 352.660950,236.091843 353.752380,234.953400 
	C355.945282,232.666168 356.234283,231.785568 352.849091,230.692963 
	C351.336151,230.204666 350.289856,228.270584 349.031769,226.992676 
	C350.335327,225.738953 351.574127,224.405258 352.974762,223.271454 
	C353.522949,222.827713 354.434265,222.832565 355.120575,222.649048 
	C354.034882,219.684143 353.047150,216.986679 352.059387,214.289230 
	C354.618347,213.703690 357.177307,213.118134 359.978821,212.477066 
	C360.614227,202.955505 360.614227,202.955505 367.708221,207.466888 
	C369.674835,205.282379 371.549713,203.199768 373.424561,201.117126 
	C374.928406,203.234879 376.432251,205.352615 377.751801,207.210846 
	C380.114349,206.548752 382.891388,205.770508 385.668427,204.992249 
	C385.877869,207.603027 386.087311,210.213821 386.278839,212.601486 
	C388.690460,213.138550 391.397003,213.741287 394.103516,214.344025 
	C393.186127,216.920303 392.268707,219.496582 391.212433,222.462814 
	C391.825409,222.663132 393.054840,222.745102 393.813477,223.385117 
	C395.061737,224.438156 396.852356,225.862823 396.837250,227.111740 
	C396.822357,228.346130 395.044281,230.286896 393.704559,230.637573 
	C390.062683,231.590836 389.996277,232.559433 392.582947,235.081711 
	C393.635742,236.108231 393.612610,238.238190 393.895325,240.186859 
M362.935944,221.850540 
	C362.592133,223.459305 362.010071,225.058594 361.945709,226.678452 
	C361.666809,233.697266 366.754425,239.264923 373.228546,239.199860 
	C379.466492,239.137177 384.325012,233.706650 384.242126,226.889587 
	C384.177338,221.563461 380.885712,216.815231 376.286591,215.413712 
	C371.242981,213.876709 367.194489,215.658264 362.935944,221.850540 
z"/>
<path fill="#151515" opacity="1.000000" stroke="none" 
	d="
M435.608704,219.347260 
	C436.880219,220.893600 438.110168,222.085052 438.837463,223.529602 
	C442.169128,230.146805 439.184814,238.453812 432.648102,241.093231 
	C426.374847,243.626297 419.203400,240.051834 417.236176,233.411484 
	C415.015442,225.915222 419.232361,217.927444 426.505951,217.028976 
	C429.320587,216.681305 432.384979,218.355743 435.608704,219.347260 
M430.723663,224.816544 
	C427.794678,223.575363 425.062134,224.160202 424.259705,227.208740 
	C423.773682,229.055359 424.495300,231.998260 425.811798,233.282928 
	C426.781830,234.229477 430.203766,234.046967 431.457764,233.034988 
	C434.187439,230.831970 434.002319,227.839462 430.723663,224.816544 
z"/>
<path fill="#151515" opacity="1.000000" stroke="none" 
	d="
M343.018616,288.129456 
	C336.712128,291.942810 331.530212,291.538055 327.446777,287.192993 
	C323.351898,282.835724 322.764862,276.123444 326.039551,271.102631 
	C329.152039,266.330505 334.258606,264.459259 339.402100,266.206085 
	C348.112213,269.164246 350.088562,280.174469 343.018616,288.129456 
M336.250977,273.171692 
	C332.448669,273.110138 330.470398,275.341675 331.128448,278.731873 
	C331.469727,280.490082 334.022858,283.184967 335.347290,283.058258 
	C337.219421,282.879150 340.025970,280.669708 340.305389,278.976990 
	C340.581696,277.302704 338.214813,275.192108 336.250977,273.171692 
z"/>
<path fill="#151515" opacity="1.000000" stroke="none" 
	d="
M364.950989,279.927795 
	C367.982483,272.105164 372.983734,269.145569 379.625824,270.934021 
	C385.346191,272.474335 389.126495,279.270996 387.820343,285.666992 
	C386.496918,292.147461 381.105225,296.249084 374.871033,295.517944 
	C368.120087,294.726227 364.105499,288.625122 364.950989,279.927795 
M372.548767,286.140381 
	C376.242676,288.964233 379.390350,288.829437 380.384186,285.363678 
	C380.919220,283.497894 380.367676,280.722076 379.208588,279.184357 
	C378.465302,278.198303 374.602142,277.964508 374.094940,278.715485 
	C372.837433,280.577393 372.703583,283.198181 372.548767,286.140381 
z"/>
<path fill="#141414" opacity="1.000000" stroke="none" 
	d="
M383.219971,169.508698 
	C386.257050,164.102814 390.558746,161.844833 396.308960,162.888367 
	C400.867554,163.715683 404.627655,168.188354 405.278015,173.136932 
	C406.020721,178.788345 403.753723,183.903061 399.260406,186.376297 
	C395.066956,188.684464 390.926483,188.416641 387.064758,185.591309 
	C382.370361,182.156769 381.099579,176.991898 383.219971,169.508698 
M393.570648,180.381683 
	C394.963715,179.642273 396.873413,179.248642 397.646210,178.094070 
	C399.456177,175.389908 398.973450,172.196838 396.029999,170.952316 
	C394.410339,170.267517 390.803131,171.152985 389.904633,172.521027 
	C387.796692,175.730438 388.782379,178.856125 393.570648,180.381683 
z"/>
<path fill="#F1F1F1" opacity="1.000000" stroke="none" 
	d="
M363.107178,221.494324 
	C367.194489,215.658264 371.242981,213.876709 376.286591,215.413712 
	C380.885712,216.815231 384.177338,221.563461 384.242126,226.889587 
	C384.325012,233.706650 379.466492,239.137177 373.228546,239.199860 
	C366.754425,239.264923 361.666809,233.697266 361.945709,226.678452 
	C362.010071,225.058594 362.592133,223.459305 363.107178,221.494324 
z"/>
<path fill="#E0E0E0" opacity="1.000000" stroke="none" 
	d="
M431.043793,225.043533 
	C434.002319,227.839462 434.187439,230.831970 431.457764,233.034988 
	C430.203766,234.046967 426.781830,234.229477 425.811798,233.282928 
	C424.495300,231.998260 423.773682,229.055359 424.259705,227.208740 
	C425.062134,224.160202 427.794678,223.575363 431.043793,225.043533 
z"/>
<path fill="#E0E0E0" opacity="1.000000" stroke="none" 
	d="
M336.629150,273.222290 
	C338.214813,275.192108 340.581696,277.302704 340.305389,278.976990 
	C340.025970,280.669708 337.219421,282.879150 335.347290,283.058258 
	C334.022858,283.184967 331.469727,280.490082 331.128448,278.731873 
	C330.470398,275.341675 332.448669,273.110138 336.629150,273.222290 
z"/>
<path fill="#E0E0E0" opacity="1.000000" stroke="none" 
	d="
M372.333557,285.827240 
	C372.703583,283.198181 372.837433,280.577393 374.094940,278.715485 
	C374.602142,277.964508 378.465302,278.198303 379.208588,279.184357 
	C380.367676,280.722076 380.919220,283.497894 380.384186,285.363678 
	C379.390350,288.829437 376.242676,288.964233 372.333557,285.827240 
z"/>
<path fill="#E0E0E0" opacity="1.000000" stroke="none" 
	d="
M393.211731,180.332214 
	C388.782379,178.856125 387.796692,175.730438 389.904633,172.521027 
	C390.803131,171.152985 394.410339,170.267517 396.029999,170.952316 
	C398.973450,172.196838 399.456177,175.389908 397.646210,178.094070 
	C396.873413,179.248642 394.963715,179.642273 393.211731,180.332214 
z"/>
</svg>
